<mxfile host="app.diagrams.net" agent="Mozilla/5.0 (Windows NT 10.0; Win64; x64) AppleWebKit/537.36 (KHTML, like Gecko) Chrome/133.0.0.0 Safari/537.36 Edg/133.0.0.0" version="26.1.0">
  <diagram name="Page-1" id="4C2WllJ1UVCUriaeaGCS">
    <mxGraphModel dx="872" dy="477" grid="1" gridSize="10" guides="1" tooltips="1" connect="1" arrows="1" fold="1" page="1" pageScale="1" pageWidth="850" pageHeight="1100" math="0" shadow="0">
      <root>
        <mxCell id="0" />
        <mxCell id="1" parent="0" />
        <mxCell id="LE3vZvuh2DFN4fWm5aq0-9" style="edgeStyle=orthogonalEdgeStyle;rounded=0;orthogonalLoop=1;jettySize=auto;html=1;exitX=1;exitY=0.5;exitDx=0;exitDy=0;entryX=0;entryY=0.5;entryDx=0;entryDy=0;" edge="1" parent="1" source="LE3vZvuh2DFN4fWm5aq0-1" target="LE3vZvuh2DFN4fWm5aq0-2">
          <mxGeometry relative="1" as="geometry" />
        </mxCell>
        <mxCell id="LE3vZvuh2DFN4fWm5aq0-19" style="edgeStyle=orthogonalEdgeStyle;rounded=0;orthogonalLoop=1;jettySize=auto;html=1;exitX=0.5;exitY=1;exitDx=0;exitDy=0;entryX=0.5;entryY=0;entryDx=0;entryDy=0;" edge="1" parent="1" source="LE3vZvuh2DFN4fWm5aq0-1" target="LE3vZvuh2DFN4fWm5aq0-3">
          <mxGeometry relative="1" as="geometry" />
        </mxCell>
        <mxCell id="LE3vZvuh2DFN4fWm5aq0-1" value="" style="rounded=0;whiteSpace=wrap;html=1;" vertex="1" parent="1">
          <mxGeometry x="80" y="80" width="120" height="60" as="geometry" />
        </mxCell>
        <mxCell id="LE3vZvuh2DFN4fWm5aq0-11" style="edgeStyle=orthogonalEdgeStyle;rounded=0;orthogonalLoop=1;jettySize=auto;html=1;exitX=1;exitY=0.5;exitDx=0;exitDy=0;entryX=0;entryY=0.5;entryDx=0;entryDy=0;" edge="1" parent="1" source="LE3vZvuh2DFN4fWm5aq0-2" target="LE3vZvuh2DFN4fWm5aq0-5">
          <mxGeometry relative="1" as="geometry" />
        </mxCell>
        <mxCell id="LE3vZvuh2DFN4fWm5aq0-2" value="" style="rounded=0;whiteSpace=wrap;html=1;" vertex="1" parent="1">
          <mxGeometry x="280" y="80" width="120" height="60" as="geometry" />
        </mxCell>
        <mxCell id="LE3vZvuh2DFN4fWm5aq0-16" style="edgeStyle=orthogonalEdgeStyle;rounded=0;orthogonalLoop=1;jettySize=auto;html=1;exitX=1;exitY=0.5;exitDx=0;exitDy=0;entryX=0;entryY=0.5;entryDx=0;entryDy=0;" edge="1" parent="1" source="LE3vZvuh2DFN4fWm5aq0-3" target="LE3vZvuh2DFN4fWm5aq0-4">
          <mxGeometry relative="1" as="geometry" />
        </mxCell>
        <mxCell id="LE3vZvuh2DFN4fWm5aq0-3" value="" style="rounded=0;whiteSpace=wrap;html=1;" vertex="1" parent="1">
          <mxGeometry x="80" y="200" width="120" height="60" as="geometry" />
        </mxCell>
        <mxCell id="LE3vZvuh2DFN4fWm5aq0-17" style="edgeStyle=orthogonalEdgeStyle;rounded=0;orthogonalLoop=1;jettySize=auto;html=1;exitX=1;exitY=0.5;exitDx=0;exitDy=0;entryX=0;entryY=0.5;entryDx=0;entryDy=0;" edge="1" parent="1" source="LE3vZvuh2DFN4fWm5aq0-4" target="LE3vZvuh2DFN4fWm5aq0-7">
          <mxGeometry relative="1" as="geometry" />
        </mxCell>
        <mxCell id="LE3vZvuh2DFN4fWm5aq0-4" value="" style="rounded=0;whiteSpace=wrap;html=1;" vertex="1" parent="1">
          <mxGeometry x="280" y="200" width="120" height="60" as="geometry" />
        </mxCell>
        <mxCell id="LE3vZvuh2DFN4fWm5aq0-13" style="edgeStyle=orthogonalEdgeStyle;rounded=0;orthogonalLoop=1;jettySize=auto;html=1;exitX=1;exitY=0.5;exitDx=0;exitDy=0;" edge="1" parent="1" source="LE3vZvuh2DFN4fWm5aq0-5" target="LE3vZvuh2DFN4fWm5aq0-6">
          <mxGeometry relative="1" as="geometry" />
        </mxCell>
        <mxCell id="LE3vZvuh2DFN4fWm5aq0-5" value="" style="rounded=0;whiteSpace=wrap;html=1;" vertex="1" parent="1">
          <mxGeometry x="480" y="80" width="120" height="60" as="geometry" />
        </mxCell>
        <mxCell id="LE3vZvuh2DFN4fWm5aq0-6" value="" style="rounded=0;whiteSpace=wrap;html=1;" vertex="1" parent="1">
          <mxGeometry x="680" y="80" width="120" height="60" as="geometry" />
        </mxCell>
        <mxCell id="LE3vZvuh2DFN4fWm5aq0-7" value="" style="rounded=0;whiteSpace=wrap;html=1;" vertex="1" parent="1">
          <mxGeometry x="480" y="200" width="120" height="60" as="geometry" />
        </mxCell>
      </root>
    </mxGraphModel>
  </diagram>
</mxfile>
